<svg width="17" height="17" viewBox="0 0 17 17" fill="none" xmlns="http://www.w3.org/2000/svg">
<g clip-path="url(#clip0_339_2813)">
<path d="M8.10121 3.93432C7.29031 3.93432 6.49761 4.17478 5.82337 4.62529C5.14913 5.07581 4.62362 5.71614 4.31331 6.46531C4.00299 7.21449 3.92179 8.03886 4.07999 8.83419C4.23819 9.62951 4.62868 10.3601 5.20207 10.9335C5.77547 11.5068 6.50602 11.8973 7.30134 12.0555C8.09666 12.2137 8.92104 12.1325 9.67021 11.8222C10.4194 11.5119 11.0597 10.9864 11.5102 10.3122C11.9607 9.63791 12.2012 8.84522 12.2012 8.03432C12.2025 7.49553 12.0974 6.96179 11.8918 6.46376C11.6862 5.96572 11.3843 5.51322 11.0033 5.13224C10.6223 4.75126 10.1698 4.4493 9.67177 4.24372C9.17374 4.03815 8.64 3.933 8.10121 3.93432ZM8.10121 10.7043C7.57313 10.7043 7.05692 10.5477 6.61784 10.2543C6.17876 9.96096 5.83654 9.54396 5.63445 9.05608C5.43237 8.5682 5.37949 8.03135 5.48251 7.51343C5.58554 6.9955 5.83983 6.51975 6.21324 6.14634C6.58664 5.77294 7.06239 5.51864 7.58032 5.41562C8.09825 5.3126 8.6351 5.36547 9.12298 5.56756C9.61085 5.76964 10.0279 6.11186 10.3212 6.55094C10.6146 6.99002 10.7712 7.50624 10.7712 8.03432C10.7712 8.74244 10.4899 9.42157 9.98919 9.92229C9.48846 10.423 8.80934 10.7043 8.10121 10.7043ZM13.3312 3.76432C13.3312 3.9621 13.2726 4.15544 13.1627 4.31989C13.0528 4.48434 12.8966 4.61251 12.7139 4.6882C12.5312 4.76388 12.3301 4.78369 12.1361 4.7451C11.9421 4.70652 11.764 4.61128 11.6241 4.47142C11.4843 4.33157 11.389 4.15339 11.3504 3.95941C11.3118 3.76543 11.3316 3.56436 11.4073 3.38163C11.483 3.19891 11.6112 3.04273 11.7756 2.93285C11.9401 2.82297 12.1334 2.76432 12.3312 2.76432C12.5964 2.76432 12.8508 2.86967 13.0383 3.05721C13.2259 3.24475 13.3312 3.4991 13.3312 3.76432ZM16.0412 4.76432C16.0703 3.52114 15.6066 2.31691 14.7512 1.41432C13.8534 0.548004 12.6486 0.0732733 11.4012 0.0943164C10.1012 0.0343164 6.10121 0.0343164 4.80121 0.0943164C3.55842 0.0674056 2.35498 0.530817 1.45121 1.38432C0.595844 2.28691 0.132125 3.49114 0.161211 4.73432C0.101211 6.03432 0.101211 10.0343 0.161211 11.3343C0.132125 12.5775 0.595844 13.7817 1.45121 14.6843C2.35498 15.5378 3.55842 16.0012 4.80121 15.9743C6.12121 16.0543 10.0812 16.0543 11.4012 15.9743C12.6444 16.0034 13.8486 15.5397 14.7512 14.6843C15.6066 13.7817 16.0703 12.5775 16.0412 11.3343C16.1012 10.0343 16.1012 6.03432 16.0412 4.73432V4.76432ZM14.3412 12.7643C14.2054 13.1083 14.0005 13.4206 13.739 13.6821C13.4775 13.9436 13.1651 14.1485 12.8212 14.2843C11.2688 14.5982 9.68177 14.7058 8.10121 14.6043C6.52397 14.7059 4.94021 14.5983 3.39121 14.2843C3.04727 14.1485 2.73489 13.9436 2.47342 13.6821C2.21196 13.4206 2.00698 13.1083 1.87121 12.7643C1.45121 11.7043 1.54121 9.20432 1.54121 8.04432C1.54121 6.88432 1.45121 4.37432 1.87121 3.32432C2.00315 2.97698 2.20666 2.66128 2.46852 2.39769C2.73039 2.13411 3.04475 1.92853 3.39121 1.79432C4.94021 1.48029 6.52397 1.37269 8.10121 1.47432C9.68177 1.37286 11.2688 1.48046 12.8212 1.79432C13.1651 1.93009 13.4775 2.13506 13.739 2.39653C14.0005 2.65799 14.2054 2.97038 14.3412 3.31432C14.7612 4.37432 14.6612 6.87432 14.6612 8.03432C14.6612 9.19432 14.7612 11.7043 14.3412 12.7543V12.7643Z" fill="white"/>
</g>
<defs>
<clipPath id="clip0_339_2813">
<rect width="16" height="16" fill="white" transform="translate(0.101562 0.0341797)"/>
</clipPath>
</defs>
</svg>
