<svg width="13" height="13" viewBox="0 0 13 13" fill="none" xmlns="http://www.w3.org/2000/svg">
<path d="M6.70084 12.0342H4.03418V4.03418H6.70084V5.36751C6.98157 5.01035 7.33786 4.71975 7.74415 4.51655C8.15045 4.31334 8.59668 4.20257 9.05084 4.19218C9.8451 4.19658 10.6052 4.51579 11.1644 5.0798C11.7237 5.6438 12.0365 6.40657 12.0342 7.20084V12.0342H9.3675V7.53417C9.31592 7.17389 9.13595 6.84435 8.8607 6.60622C8.58546 6.36809 8.23346 6.23739 7.8695 6.23817C7.70661 6.24332 7.54643 6.28133 7.39859 6.3499C7.25074 6.41848 7.11827 6.51622 7.00913 6.63725C6.89999 6.75829 6.81642 6.90012 6.76345 7.05425C6.71047 7.20837 6.68917 7.37161 6.70084 7.53417V12.0342ZM2.70084 12.0342H0.0341797V4.03418H2.70084V12.0342ZM1.36751 2.70084C1.01389 2.70084 0.674752 2.56037 0.424704 2.31032C0.174655 2.06027 0.0341797 1.72113 0.0341797 1.36751C0.0341797 1.01389 0.174655 0.674752 0.424704 0.424703C0.674752 0.174655 1.01389 0.0341797 1.36751 0.0341797C1.72113 0.0341797 2.06027 0.174655 2.31032 0.424703C2.56037 0.674752 2.70084 1.01389 2.70084 1.36751C2.70084 1.72113 2.56037 2.06027 2.31032 2.31032C2.06027 2.56037 1.72113 2.70084 1.36751 2.70084Z" fill="white"/>
</svg>
