<svg width="128" height="129" viewBox="0 0 128 129" fill="none" xmlns="http://www.w3.org/2000/svg">
<path d="M72.5677 51.2127C72.6613 49.7545 72.8493 48.3039 73.1306 46.8701C73.363 45.6429 73.6624 44.4295 74.0274 43.2352C74.4216 41.7192 74.9782 40.2503 75.6875 38.8543C77.3535 35.5799 79.8111 32.7762 82.8361 30.6993C85.861 28.6223 89.3568 27.3384 93.0042 26.9646H93.071H93.424C98.4746 26.4869 103.2 24.2537 106.781 20.6515C107.495 19.9231 108.158 19.1465 108.766 18.3271C107.753 22.0232 106.376 25.6089 104.654 29.0307C104.024 30.2742 103.346 31.5082 102.621 32.7134C101.896 33.9186 101.267 34.8751 100.532 35.9369C98.6091 38.6689 96.4544 41.2291 94.0918 43.5892C92.6403 45.0384 91.1149 46.4112 89.5218 47.7022C92.5458 47.1767 95.4874 46.2537 98.2707 44.957C92.9572 50.1792 86.1172 53.561 78.7501 54.6084C77.9964 54.7232 77.2427 54.8093 76.4794 54.8667C76.3934 51.8781 76.9159 48.9033 78.0149 46.1239C79.114 43.3445 80.7666 40.8189 82.8718 38.7013C83.7008 37.8728 84.5941 37.1116 85.5432 36.4247C80.5428 38.4531 76.4657 42.2614 74.0942 47.1188C73.808 47.6927 73.5504 48.2857 73.3214 48.8788C73.03 49.6431 72.7784 50.4222 72.5677 51.2127ZM19.2057 110.001C19.8146 109.195 20.4777 108.431 21.1902 107.715C24.7717 104.113 29.4968 101.88 34.5474 101.402H34.9004H34.9672C38.6181 101.028 42.1171 99.7416 45.144 97.6612C48.1709 95.5807 50.629 92.7723 52.2934 89.4931C53.0014 88.1032 53.558 86.6408 53.9535 85.1313C54.3185 83.9371 54.6179 82.7236 54.8503 81.4965C55.1328 80.0533 55.3209 78.593 55.4132 77.1252C55.209 77.8946 54.9605 78.6515 54.669 79.3921C54.4401 79.9852 54.1825 80.5782 53.8962 81.1522C51.5248 86.0095 47.4476 89.8178 42.4472 91.8462C43.3963 91.1593 44.2896 90.3981 45.1187 89.5696C47.2209 87.4573 48.8725 84.9383 49.9731 82.1658C51.0736 79.3933 51.6001 76.4254 51.5206 73.4425C50.7573 73.4999 50.0036 73.586 49.2498 73.7008C41.8841 74.7626 35.0487 78.1539 29.7388 83.3809C32.5068 82.0643 35.4355 81.1188 38.4496 80.5687C34.2506 83.9715 30.545 87.9442 27.4395 92.3723C26.7048 93.434 26.0083 94.5053 25.35 95.5958C24.6917 96.6862 23.9475 98.0349 23.3178 99.2784C21.5943 102.706 20.2167 106.299 19.2057 110.001ZM18.2516 19.2741C19.0559 19.8846 19.8178 20.5493 20.5319 21.2637C24.1248 24.8544 26.3524 29.5915 26.8289 34.6551V35.0091V35.0665C27.2045 38.726 28.4895 42.2327 30.5663 45.2656C32.6431 48.2986 35.4454 50.761 38.7168 52.4275C40.1092 53.1387 41.5743 53.6967 43.0865 54.0919C44.2777 54.4578 45.488 54.758 46.712 54.991C48.1515 55.2742 49.608 55.4628 51.0722 55.5554C50.2825 55.3517 49.5053 55.1025 48.7442 54.8093C48.1527 54.5797 47.5611 54.3214 46.9887 54.0345C42.1437 51.6569 38.3452 47.5693 36.322 42.5561C37.0071 43.5077 37.7664 44.4032 38.5927 45.2344C40.7052 47.3479 43.2256 49.0072 45.9996 50.1108C48.7737 51.2144 51.7431 51.739 54.7263 51.6527C54.669 50.8875 54.5832 50.1318 54.4687 49.3762C53.422 41.9936 50.049 35.1397 44.842 29.8151C46.1552 32.5901 47.0983 35.5264 47.647 38.5482C46.3616 36.952 44.9922 35.4258 43.5444 33.976C41.1931 31.6017 38.6391 29.4381 35.9117 27.5099C34.8527 26.7733 33.7841 26.0751 32.6965 25.415C31.6088 24.755 30.2636 24.0089 29.0233 23.3776C25.6101 21.6508 22.0337 20.2698 18.347 19.255L18.2516 19.2741ZM80.2671 77.6226C77.9967 76.9254 75.6283 76.6024 73.2546 76.666C73.3119 77.4312 73.3977 78.1869 73.5122 78.9426C74.5675 86.334 77.9503 93.1942 83.1676 98.5228C81.8544 95.7477 80.9113 92.8115 80.3625 89.7896C81.6502 91.3869 83.0196 92.9162 84.4651 94.3714C86.8191 96.74 89.3728 98.9002 92.0978 100.828C93.1568 101.565 94.2254 102.263 95.3131 102.923C96.4007 103.583 97.746 104.329 98.9863 104.96C102.419 106.677 106.015 108.046 109.72 109.045C108.915 108.431 108.153 107.763 107.439 107.045C103.847 103.455 101.619 98.7176 101.143 93.654V93.3001V93.2427C100.768 89.5841 99.4842 86.0781 97.4091 83.0452C95.3341 80.0124 92.5337 77.5494 89.2642 75.8817C87.8778 75.1718 86.4192 74.6138 84.9135 74.2173C83.7223 73.8514 82.512 73.5512 81.288 73.3182C79.8484 73.0349 78.392 72.8464 76.9278 72.7538C77.7166 72.9605 78.4937 73.2095 79.2558 73.4999C79.8473 73.7295 80.4389 73.9877 81.0113 74.2747C85.8563 76.6523 89.6548 80.7399 91.678 85.7531C90.9929 84.8015 90.2336 83.9059 89.4073 83.0748C86.858 80.5243 83.7175 78.6477 80.2671 77.613V77.6226ZM0 64.8146C0.999355 64.6801 2.00659 64.613 3.01491 64.6137C8.08698 64.6054 13.0031 66.3712 16.9159 69.6068C16.9975 69.685 17.0836 69.7585 17.1735 69.8268C20.0105 72.147 23.3814 73.7187 26.9792 74.3986C30.577 75.0786 34.2874 74.8453 37.7722 73.7199C39.2613 73.2377 40.6943 72.5963 42.0465 71.8068C43.1437 71.2138 44.2123 70.5729 45.2427 69.8938C46.4562 69.0651 47.6191 68.1644 48.7251 67.1964C48.02 67.6072 47.2939 67.9808 46.5498 68.3155C45.9678 68.5738 45.3667 68.8129 44.7561 69.0233C39.6781 70.7578 34.1423 70.5672 29.195 68.4877C30.3499 68.6722 31.5175 68.765 32.6869 68.7651C36.2815 68.7694 39.8214 67.8822 42.9911 66.1824C45.0999 65.0604 47.0138 63.6036 48.6583 61.8685C48.0763 61.3711 47.4848 60.9119 46.8742 60.4432C40.9047 55.967 33.663 53.5235 26.2087 53.4701C29.0944 54.4954 31.8312 55.9011 34.347 57.6502C32.3123 57.4354 30.2678 57.3268 28.2218 57.3249C24.876 57.3259 21.5367 57.6203 18.2421 58.205C16.9827 58.425 15.7329 58.6928 14.4925 58.9989C13.2522 59.305 11.7829 59.7258 10.4568 60.1563C6.82278 61.3499 3.31919 62.9107 0 64.8146H0ZM81.3548 59.965C81.9368 59.7067 82.5379 59.4676 83.1485 59.2571C88.253 57.5124 93.8197 57.7133 98.7859 59.8215C97.6311 59.6366 96.4634 59.5439 95.294 59.5441C91.6953 59.5545 88.1552 60.4582 84.9899 62.1746C82.8979 63.3009 81.0005 64.7575 79.3703 66.4885C79.9523 66.9859 80.5438 67.4451 81.1544 67.9138C87.1108 72.3803 94.3343 74.8234 101.772 74.8869C98.8865 73.8616 96.1497 72.4559 93.6339 70.7068C95.6686 70.9216 97.7131 71.0302 99.7591 71.0321C103.1 71.0174 106.433 70.7101 109.72 70.1138C110.989 69.8842 112.229 69.6164 113.469 69.3103C114.71 69.0042 116.179 68.5833 117.505 68.1529C121.151 66.9593 124.667 65.3985 128 63.4946C127.001 63.6323 125.994 63.7026 124.985 63.705C119.912 63.7106 114.996 61.9414 111.084 58.7024C110.999 58.6239 110.91 58.5504 110.817 58.4824C107.977 56.1364 104.594 54.5443 100.979 53.8523C97.3649 53.1603 93.6348 53.3907 90.1324 54.5223C88.6473 55.007 87.2177 55.6482 85.8676 56.4354C84.7704 57.0284 83.7018 57.6693 82.6714 58.3484C81.4569 59.1894 80.294 60.103 79.189 61.0841C79.891 60.6736 80.6139 60.3 81.3548 59.965ZM57.5027 93.874C57.2885 95.914 57.1802 97.9637 57.1783 100.015C57.1803 103.363 57.474 106.704 58.056 110.001C58.2755 111.273 58.5426 112.517 58.8479 113.76C59.1532 115.004 59.573 116.477 60.0024 117.806C61.193 121.462 62.7497 124.987 64.6488 128.328C64.5146 127.326 64.4477 126.317 64.4484 125.306C64.4402 120.221 66.2014 115.292 69.4287 111.369C69.507 111.284 69.5803 111.195 69.6482 111.101C71.9624 108.257 73.5301 104.877 74.2083 101.27C74.8865 97.6633 74.6538 93.9434 73.5313 90.4496C73.0504 88.9568 72.4106 87.5201 71.6231 86.1644C71.0316 85.0644 70.3924 83.9931 69.715 82.96C68.9002 81.718 68.0113 80.5265 67.0531 79.3921C67.4629 80.0991 67.8355 80.827 68.1693 81.573C68.4269 82.1565 68.6655 82.7591 68.8754 83.3713C70.6157 88.489 70.4153 94.0699 68.3125 99.0489C68.4969 97.8911 68.5894 96.7204 68.5891 95.548C68.5935 91.9441 67.7085 88.3952 66.0131 85.2174C64.8897 83.1201 63.4368 81.2178 61.7102 79.5834C61.2141 80.1669 60.7561 80.76 60.2886 81.3722C55.8335 87.3438 53.3967 94.5858 53.3333 102.043C54.3552 99.1464 55.7573 96.3993 57.5027 93.874ZM63.3321 0C63.4695 1.0017 63.5396 2.01152 63.542 3.02264C63.5476 8.1089 61.7829 13.0377 58.5522 16.9593C58.4739 17.0442 58.4006 17.1337 58.3327 17.2271C55.996 20.0724 54.4098 23.4607 53.7196 27.0808C53.0294 30.701 53.2575 34.4369 54.3828 37.9456C54.8638 39.4385 55.5035 40.8752 56.291 42.2309C56.8825 43.3309 57.5218 44.4022 58.1992 45.4353C59.0257 46.6518 59.9241 47.8177 60.8897 48.9266C60.4799 48.2197 60.1073 47.4917 59.7734 46.7457C59.5158 46.1622 59.2773 45.5596 59.0674 44.9474C57.3271 39.8298 57.5275 34.2488 59.6303 29.2699C59.4462 30.4277 59.3537 31.5983 59.3536 32.7708C59.3757 36.3819 60.2902 39.9313 62.0155 43.1013C63.1202 45.2122 64.557 47.1307 66.2707 48.7831C66.7668 48.1996 67.2248 47.6066 67.6923 46.9944C72.1475 41.0227 74.5842 33.7808 74.6476 26.3238C73.6211 29.2002 72.2191 31.9278 70.4782 34.4351C70.6925 32.3952 70.8007 30.3454 70.8026 28.2942C70.8049 24.9401 70.5143 21.5922 69.9344 18.2889C69.7054 17.0135 69.4383 15.7605 69.133 14.5297C68.799 13.1619 68.4079 11.8132 67.9785 10.4836C66.788 6.84028 65.2312 3.32771 63.3321 0V0Z" fill="url(#paint0_linear_1_2705)"/>
<defs>
<linearGradient id="paint0_linear_1_2705" x1="63.9905" y1="0.994793" x2="63.9905" y2="129.304" gradientUnits="userSpaceOnUse">
<stop stop-color="#EE4224"/>
<stop offset="0.05" stop-color="#E94925"/>
<stop offset="0.29" stop-color="#D36528"/>
<stop offset="0.53" stop-color="#C47A2B"/>
<stop offset="0.77" stop-color="#BB862C"/>
<stop offset="1" stop-color="#B88A2D"/>
</linearGradient>
</defs>
</svg>
