<svg width="16" height="13" viewBox="0 0 16 13" fill="none" xmlns="http://www.w3.org/2000/svg">
<path d="M14.1064 3.1824C14.1168 3.3224 14.1168 3.4616 14.1168 3.6008C14.1168 7.8608 10.8744 12.7696 4.9488 12.7696C3.1232 12.7696 1.4272 12.2408 0 11.3224C0.2592 11.352 0.5088 11.3624 0.7784 11.3624C2.22879 11.3659 3.63812 10.8809 4.7792 9.9856C4.10674 9.97343 3.45486 9.75157 2.91459 9.35099C2.37432 8.95041 1.97263 8.39112 1.7656 7.7512C1.9648 7.7808 2.1648 7.8008 2.3744 7.8008C2.6632 7.8008 2.9536 7.7608 3.2232 7.6912C2.49341 7.54385 1.83718 7.14828 1.36609 6.57175C0.895011 5.99522 0.638154 5.27332 0.6392 4.5288V4.4888C1.0688 4.728 1.5672 4.8776 2.0952 4.8976C1.65287 4.60367 1.29018 4.20482 1.03947 3.73663C0.788768 3.26845 0.65785 2.74548 0.6584 2.2144C0.6584 1.616 0.8176 1.0672 1.0968 0.5888C1.90651 1.58482 2.9164 2.39965 4.06107 2.98053C5.20574 3.5614 6.45965 3.89537 7.7416 3.9608C7.692 3.7208 7.6616 3.472 7.6616 3.2224C7.66139 2.79917 7.7446 2.38005 7.90646 1.98899C8.06833 1.59794 8.30568 1.24262 8.60495 0.943351C8.90422 0.644081 9.25954 0.406729 9.65059 0.244863C10.0416 0.0829965 10.4608 -0.000209903 10.884 3.9765e-07C11.812 3.9765e-07 12.6496 0.3888 13.2384 1.0176C13.9598 0.878094 14.6516 0.614738 15.2832 0.2392C15.0427 0.983853 14.539 1.61528 13.8664 2.0152C14.5062 1.94222 15.1315 1.77396 15.7216 1.516C15.2809 2.15848 14.7348 2.72188 14.1064 3.1824Z" fill="white"/>
</svg>
