<svg width="15" height="11" viewBox="0 0 15 11" fill="none" xmlns="http://www.w3.org/2000/svg">
<path d="M14.1771 2.23309C14.0961 1.93257 13.9378 1.65851 13.718 1.43818C13.4982 1.21786 13.2245 1.05894 12.9242 0.977265C11.8106 0.671487 7.35544 0.666509 7.35544 0.666509C7.35544 0.666509 2.90104 0.661531 1.78673 0.953798C1.48659 1.03924 1.21345 1.2004 0.993534 1.4218C0.773619 1.64321 0.614313 1.91744 0.53091 2.21815C0.237221 3.33175 0.234376 5.64144 0.234376 5.64144C0.234376 5.64144 0.231532 7.96251 0.523087 9.06473C0.686643 9.67415 1.16664 10.1556 1.77678 10.3198C2.90175 10.6256 7.34478 10.6306 7.34478 10.6306C7.34478 10.6306 11.7999 10.6356 12.9135 10.344C13.2139 10.2625 13.4879 10.1039 13.7083 9.88406C13.9286 9.66418 14.0878 9.39059 14.17 9.09033C14.4644 7.97744 14.4666 5.66846 14.4666 5.66846C14.4666 5.66846 14.4808 3.34669 14.1771 2.23309ZM5.93038 7.78118L5.93393 3.51451L9.63669 5.6514L5.93038 7.78118Z" fill="white"/>
</svg>
